<svg width="24" height="24" viewBox="0 0 24 24" fill="none" xmlns="http://www.w3.org/2000/svg">
<path fill-rule="evenodd" clip-rule="evenodd" d="M21.4974 16.4126C18.8594 13.2126 17.5444 13.4996 16.0984 14.2026C15.0974 14.6886 14.2334 15.1106 11.9874 12.8636C9.74141 10.6166 10.1624 9.7536 10.6484 8.7546C11.3534 7.3076 11.6394 5.9896 8.43641 3.3526C7.67341 2.7276 6.84141 2.4876 5.97541 2.6556C4.14241 2.9986 2.84741 5.0386 2.84941 5.0386C2.03741 6.1746 0.925409 9.5906 8.09241 16.7586C12.8064 21.4736 15.8974 22.6046 17.7734 22.6046C18.7504 22.6046 19.3964 22.2986 19.7704 22.0296C19.7914 22.0176 21.8494 20.7426 22.1964 18.8736C22.3584 18.0046 22.1234 17.1776 21.4974 16.4126Z" fill="#626262"/>
</svg>
