<svg width="34" height="42" viewBox="0 0 34 42" fill="none" xmlns="http://www.w3.org/2000/svg">
<path d="M16.5498 0.051198C7.45022 0.051198 0.0500488 6.98894 0.0500488 15.5199V16.5509C0.0500488 20.1197 1.25029 23.5998 3.47888 26.4924L13.9161 40.035C14.5268 40.8281 15.5072 41.3 16.5502 41.3C17.6007 41.3 18.587 40.8115 19.1799 39.999L29.7501 25.5133C31.8984 22.5693 33.05 19.0854 33.05 15.5187C33.05 6.98779 25.6499 0.0500488 16.5503 0.0500488L16.5498 0.051198ZM16.5498 2.11357C24.4604 2.11357 30.8498 8.10357 30.8498 15.52C30.8498 18.6714 29.8348 21.7493 27.9366 24.35L17.3617 38.8358C17.1772 39.0885 16.8763 39.2387 16.5496 39.2387C16.2112 39.2387 15.897 39.0892 15.6989 38.832L5.26163 25.2849C3.30335 22.7429 2.24935 19.6869 2.24935 16.5513V15.5203C2.24935 8.10401 8.63861 2.11384 16.5494 2.11384L16.5498 2.11357Z" fill="white" stroke="black" stroke-width="0.1"/>
<path d="M16.5512 7.26904C11.704 7.26904 7.75146 10.975 7.75146 15.5189C7.75146 20.0631 11.7044 23.7687 16.5512 23.7687C21.3983 23.7687 25.3509 20.0628 25.3509 15.5189C25.3509 10.9746 21.398 7.26904 16.5512 7.26904ZM16.5512 9.33142C20.2091 9.33142 23.1511 12.0895 23.1511 15.5189C23.1511 18.9482 20.2091 21.7064 16.5512 21.7064C12.8932 21.7064 9.9513 18.9482 9.9513 15.5189C9.9513 12.0895 12.8932 9.33142 16.5512 9.33142Z" fill="white" stroke="black" stroke-width="0.1"/>
</svg>
