<svg width="24" height="24" viewBox="0 0 24 24" fill="none" xmlns="http://www.w3.org/2000/svg">
<path fill-rule="evenodd" clip-rule="evenodd" d="M9 12.1206C9 11.7064 9.33579 11.3706 9.75 11.3706H21.791C22.2052 11.3706 22.541 11.7064 22.541 12.1206C22.541 12.5348 22.2052 12.8706 21.791 12.8706H9.75C9.33579 12.8706 9 12.5348 9 12.1206Z" fill="black"/>
<path fill-rule="evenodd" clip-rule="evenodd" d="M18.3328 8.67535C18.6251 8.38186 19.1 8.38088 19.3935 8.67317L22.3215 11.5892C22.4628 11.7299 22.5423 11.9212 22.5423 12.1206C22.5423 12.3201 22.4628 12.5113 22.3215 12.652L19.3935 15.568C19.1 15.8603 18.6251 15.8593 18.3328 15.5659C18.0405 15.2724 18.0415 14.7975 18.335 14.5052L20.7294 12.1206L18.335 9.73601C18.0415 9.44372 18.0405 8.96885 18.3328 8.67535Z" fill="black"/>
<path fill-rule="evenodd" clip-rule="evenodd" d="M14.2883 4.45009C15.065 5.02564 15.4533 5.96655 15.613 7.69884C15.651 8.11131 16.0162 8.41485 16.4287 8.37683C16.8411 8.33881 17.1447 7.97362 17.1066 7.56116C16.9363 5.71345 16.4896 4.21436 15.1813 3.24491C13.927 2.31545 12.0372 2 9.35979 2C5.80997 2 3.62742 2.55654 2.50736 4.37994C1.97352 5.249 1.73761 6.3253 1.62297 7.55739C1.50879 8.78465 1.50879 10.259 1.50879 11.9684V12.0316C1.50879 13.741 1.50879 15.2154 1.62297 16.4426C1.73761 17.6747 1.97352 18.751 2.50736 19.6201C3.62742 21.4435 5.80997 22 9.35979 22C12.0372 22 13.927 21.6846 15.1813 20.7551C16.4896 19.7857 16.9363 18.2866 17.1066 16.4389C17.1447 16.0264 16.8411 15.6612 16.4287 15.6232C16.0162 15.5852 15.651 15.8887 15.613 16.3012C15.4533 18.0335 15.065 18.9744 14.2883 19.5499C13.4576 20.1655 12.0124 20.5 9.35979 20.5C5.80862 20.5 4.44066 19.9016 3.78548 18.835C3.43169 18.259 3.22379 17.4566 3.11652 16.3037C3.00951 15.1535 3.00879 13.7472 3.00879 12C3.00879 10.2528 3.00951 8.84654 3.11652 7.69636C3.22379 6.54345 3.43169 5.741 3.78548 5.16506C4.44066 4.09846 5.80862 3.5 9.35979 3.5C12.0124 3.5 13.4576 3.83454 14.2883 4.45009Z" fill="black"/>
</svg>
