<svg width="26" height="26" viewBox="0 0 26 26" fill="none" xmlns="http://www.w3.org/2000/svg">
<path fill-rule="evenodd" clip-rule="evenodd" d="M21.4933 19.7091C21.4933 23.2798 16.5966 23.6925 12.9143 23.6925L12.6508 23.6923C10.3048 23.6866 4.33325 23.5385 4.33325 19.6874C4.33325 16.1896 9.03313 15.7222 12.6874 15.7046L13.1778 15.7043C15.5237 15.71 21.4933 15.8581 21.4933 19.7091ZM12.9143 17.329C8.29825 17.329 5.95825 18.122 5.95825 19.6874C5.95825 21.2669 8.29825 22.0675 12.9143 22.0675C17.5293 22.0675 19.8683 21.2745 19.8683 19.7091C19.8683 18.1296 17.5293 17.329 12.9143 17.329ZM12.9143 2.16626C16.0863 2.16626 18.6658 4.74676 18.6658 7.91876C18.6658 11.0908 16.0863 13.6702 12.9143 13.6702H12.8797C9.71417 13.6604 7.14992 11.0788 7.16072 7.91551C7.16072 4.74676 9.74125 2.16626 12.9143 2.16626ZM12.9143 3.71326C10.5949 3.71326 8.70773 5.59934 8.70773 7.91876C8.70017 10.2306 10.5733 12.1156 12.8829 12.1243L12.9143 12.8978V12.1243C15.2327 12.1243 17.1188 10.2371 17.1188 7.91876C17.1188 5.59934 15.2327 3.71326 12.9143 3.71326Z" fill="black"/>
</svg>
